<svg width="290" height="290" viewBox="0 0 290 290" fill="none" xmlns="http://www.w3.org/2000/svg">
<rect x="20.1615" y="20.1617" width="250" height="250" rx="55" fill="black"/>
<path d="M255.159 145.195C255.454 84.2654 206.121 34.4576 145.195 34.1637C84.2651 33.869 34.4574 83.2017 34.1639 144.128C33.8689 205.057 83.2016 254.865 144.131 255.16C205.061 255.455 254.865 206.121 255.159 145.195ZM243.816 138.755L206.711 119.309L219.597 79.4293C233.608 95.5148 242.485 116.104 243.816 138.755ZM205.505 131.146L232.103 145.082L205.371 158.762L205.505 131.146ZM206.198 206.78L177.625 197.555L197.239 178.13L206.198 206.78ZM197.557 111.702L178.132 92.0883L206.789 83.1396L197.557 111.702ZM210.617 70.3613L170.609 82.8613L151.529 45.5641C174.168 47.1161 194.669 56.1951 210.617 70.3613ZM145.083 57.2272L158.757 83.9538L131.153 83.8209L145.083 57.2272ZM138.748 45.5031L119.31 82.6154L79.4227 69.731C95.505 55.7178 116.096 46.8382 138.748 45.5031ZM92.0836 111.192L83.1239 82.542L111.697 91.7667L92.0836 111.192ZM83.955 130.562L83.821 158.178L57.2225 144.241L83.955 130.562ZM70.3583 78.7125L82.8566 118.715L45.5649 137.801C47.1162 115.162 56.1921 94.6603 70.3583 78.7125ZM45.5057 150.568L82.6107 170.014L69.7291 209.895C55.7141 193.808 46.8377 173.218 45.5057 150.568ZM91.7647 177.621L111.19 197.234L82.5329 206.183L91.7647 177.621ZM78.7056 218.961L118.713 206.461L137.793 243.758C115.154 242.206 94.6533 233.127 78.7056 218.961ZM144.24 232.095L130.565 205.369L158.17 205.502L144.24 232.095ZM165.021 194.485L123.822 194.285L94.8381 165.021L95.038 123.823L124.301 94.8385L165.5 95.0384L194.484 124.302L194.284 165.5L165.021 194.485ZM150.575 243.82L170.012 206.707L209.9 219.592C193.817 233.604 173.227 242.484 150.575 243.82ZM218.964 210.61L206.464 170.61L243.756 151.525C242.206 174.16 233.13 194.662 218.964 210.61Z" fill="white" stroke="white" stroke-width="1.56251"/>
</svg>
