<!DOCTYPE svg PUBLIC "-//W3C//DTD SVG 1.1//EN" "http://www.w3.org/Graphics/SVG/1.1/DTD/svg11.dtd">
<!-- Uploaded to: SVG Repo, www.svgrepo.com, Transformed by: SVG Repo Mixer Tools -->
<svg fill="#fff" height="800px" width="800px" version="1.1" id="Layer_1" xmlns="http://www.w3.org/2000/svg" xmlns:xlink="http://www.w3.org/1999/xlink" viewBox="0 0 511.997 511.997" xml:space="preserve" stroke="#fff">
<g id="SVGRepo_bgCarrier" stroke-width="0"/>
<g id="SVGRepo_tracerCarrier" stroke-linecap="round" stroke-linejoin="round"/>
<g id="SVGRepo_iconCarrier"> <g> <g> <path d="M492.508,158.036C438.492,27.621,288.441-34.527,158.035,19.488C27.62,73.505-34.528,223.555,19.488,353.961 c54.016,130.415,204.066,192.563,334.481,138.547S546.524,288.442,492.508,158.036z M462.504,154.452l-96.7-8.26l-8.243-96.742 C401.918,71.243,439.345,107.262,462.504,154.452z M373.843,172.559l69.316,5.914l-44.834,53.197L373.843,172.559z M443.159,333.498l-69.308,5.922l24.474-59.085L443.159,333.498z M339.428,138.153l-59.085-24.474l53.188-44.817L339.428,138.153z M330.246,38.134l-74.249,62.583l-74.206-62.558C231.541,21.17,283.475,22.177,330.246,38.134z M178.481,68.854l53.18,44.826 l-59.085,24.474L178.481,68.854z M154.434,49.492l-8.235,96.708l-96.759,8.252C71.225,110.095,107.245,72.66,154.434,49.492z M113.67,231.661l-44.834-53.163l69.308-5.922L113.67,231.661z M113.679,280.327l24.482,59.11l-69.316-5.914L113.679,280.327z M38.133,181.767l62.575,74.24l-62.541,74.214C21.177,280.472,22.176,228.538,38.133,181.767z M49.491,357.545l96.7,8.26 l8.252,96.742C110.078,440.754,72.651,404.734,49.491,357.545z M172.567,373.844l59.085,24.474l-53.188,44.817L172.567,373.844z M181.749,473.863l74.249-62.583l74.206,62.558C280.454,490.827,228.52,489.82,181.749,473.863z M333.515,443.143l-53.18-44.826 l59.085-24.474L333.515,443.143z M344.173,344.165l-88.183,36.523l-88.158-36.514l-36.523-88.183l36.514-88.158l88.183-36.523 l88.158,36.514l36.523,88.183L344.173,344.165z M357.562,462.505l8.235-96.708l96.76-8.252 C440.77,401.901,404.751,439.337,357.562,462.505z M473.862,330.23l-62.575-74.232l62.541-74.214 C490.818,231.525,489.82,283.459,473.862,330.23z"/> </g> </g> </g>
</svg>