<svg width="296" height="118" viewBox="0 0 296 118" fill="none" xmlns="http://www.w3.org/2000/svg">
<path d="M51.528 79.592C52.296 82.28 52.68 85.352 52.68 88.808C52.68 92.648 52.04 96.104 50.632 99.304C49.224 102.376 47.432 105.064 45 107.24C42.568 109.416 39.752 111.08 36.552 112.36C34.376 113.128 32.2 113.512 29.768 113.768C29.128 113.896 28.488 114.024 27.72 114.024C23.624 114.408 14.408 112.616 10.184 111.208C4.808 109.416 2.248 110.056 1.224 114.408H1.096V90.216H1.224C1.48 95.336 7.752 110.824 26.184 110.824C39.368 110.824 43.336 99.944 42.696 92.648C41.416 77.288 24.136 71.144 22.216 70.248C18.504 68.584 15.176 66.92 12.36 65.128C9.672 63.464 7.368 61.544 5.448 59.624C3.656 57.704 2.248 55.528 1.48 53.224C0.584 50.792 0.2 48.104 0.2 45.032C0.2 41.832 0.712 38.888 1.992 36.072C3.272 33.384 5.064 30.952 7.24 28.904C9.544 26.856 12.232 25.192 15.304 24.04C18.376 22.76 22.472 22.248 26.952 22.248C30.024 22.248 36.296 23.016 41.672 25.064C47.432 27.24 49.736 26.216 50.76 21.864H50.888V46.056H50.76C49.608 39.144 41.16 25.448 27.08 25.448C21.832 25.448 9.672 27.88 9.672 40.68C9.672 48.744 19.912 54.632 22.088 55.784C24.264 57.064 27.08 58.344 30.536 60.008C34.632 61.8 38.216 63.72 40.904 65.768C43.72 67.688 46.024 69.736 47.816 72.04C49.608 74.344 50.888 76.776 51.528 79.592ZM133.568 23.912H140.864V24.04C136.768 24.936 135.232 27.496 133.568 31.464L97.856 117.864H97.472L61.888 32.104H61.76C60.096 27.624 57.536 25.064 53.312 24.04V23.912H78.656V24.04C74.816 24.936 74.56 27.24 75.712 30.568L76.096 31.464C76.224 31.72 76.224 31.848 76.352 32.104L102.848 99.432L130.88 30.312C132.032 27.24 131.776 24.936 127.936 24.04V23.912H133.568ZM190.778 110.184C195.258 110.184 198.842 107.24 200.762 102.376H200.89L198.97 112.488H142.522V112.232C146.746 111.208 149.69 108.136 150.202 103.4V33C149.69 28.264 146.746 25.064 142.522 24.168V23.912H198.97L200.89 33.896H200.762C198.842 29.16 195.258 26.216 190.778 26.216H183.994H163.514V63.592H184.25C188.09 63.592 192.058 60.136 193.082 55.784H193.21V73.704H193.082C192.058 69.352 188.602 65.896 183.994 65.896H163.514V110.184H190.778ZM261.048 23.912L262.968 33.896H262.84C260.92 29.16 257.336 26.216 252.728 26.216H240.696V103.272C241.208 108.136 244.152 111.208 248.376 112.232V112.488H219.704V112.232C224.056 111.208 226.872 108.136 227.384 103.272V26.216H215.224C210.744 26.216 207.032 29.16 205.24 33.896H205.112L206.904 23.912H261.048ZM295.077 0.487991L280.741 17.128H276.133L283.941 0.487991H295.077ZM295.333 24.04C290.981 25.064 288.165 28.264 287.653 33L287.781 103.4C288.293 108.136 290.981 111.208 295.333 112.232V112.36H266.533V112.232C270.757 111.208 273.701 108.008 274.213 103.144V33C273.701 28.264 270.757 25.064 266.533 24.04V23.912H295.333V24.04Z" fill="white"/>
</svg>
