<svg width="347" height="95" viewBox="0 0 347 95" fill="none" xmlns="http://www.w3.org/2000/svg">
<path d="M50.344 29.536C50.088 25.44 49.1067 21.5573 47.4 17.888C45.6933 14.2187 43.2187 11.232 39.976 8.92799C36.7333 6.62399 32.5947 5.47199 27.56 5.47199C22.2693 5.47199 18.216 6.96533 15.4 9.952C12.584 12.9387 11.176 16.4373 11.176 20.448C11.176 24.032 12.2 27.0613 14.248 29.536C16.296 31.9253 18.9413 34.0587 22.184 35.936C25.512 37.728 29.0107 39.4773 32.68 41.184C35.9227 42.6347 39.1653 44.2133 42.408 45.92C45.6507 47.5413 48.5947 49.4187 51.24 51.552C53.8853 53.6853 55.976 56.2453 57.512 59.232C59.1333 62.1333 59.944 65.632 59.944 69.728C59.944 74.4213 58.7493 78.6027 56.36 82.272C54.056 85.9413 50.6853 88.8427 46.248 90.976C41.8107 93.024 36.392 94.048 29.992 94.048C26.152 94.048 22.184 93.4933 18.088 92.384C13.992 91.2747 10.3653 89.6533 7.208 87.52L7.848 93.024H1.192L0.424 65.76H5.416C5.84267 73.2693 8.44533 78.9867 13.224 82.912C18.0027 86.752 23.7627 88.672 30.504 88.672C33.832 88.672 36.904 88.0747 39.72 86.88C42.536 85.6 44.7547 83.7653 46.376 81.376C48.0827 78.9867 48.936 76.0853 48.936 72.672C48.936 68.832 47.912 65.632 45.864 63.072C43.816 60.512 41.1707 58.2933 37.928 56.416C34.6853 54.5387 31.2293 52.7467 27.56 51.04C24.3173 49.5893 21.1173 48.0533 17.96 46.432C14.8027 44.8107 11.9013 42.976 9.256 40.928C6.696 38.7947 4.60533 36.2773 2.984 33.376C1.448 30.4747 0.68 26.976 0.68 22.88C0.68 20.6613 1.064 18.272 1.832 15.712C2.6 13.152 3.92267 10.72 5.8 8.41599C7.76267 6.02666 10.408 4.10666 13.736 2.656C17.1493 1.12 21.4587 0.351997 26.664 0.351997C29.9067 0.351997 33.5333 0.82133 37.544 1.75999C41.64 2.61333 45.4373 4.31999 48.936 6.88L48.424 1.376H54.952V29.536H50.344ZM106.841 93.28L77.785 25.184C75.9077 20.832 74.585 17.3333 73.817 14.688C73.049 11.9573 72.537 9.65333 72.281 7.77599C71.0863 7.86133 69.8917 7.904 68.697 7.904C67.5023 7.904 66.3077 7.94667 65.113 8.032V2.39999H94.809L94.681 6.752C90.4143 7.008 87.8543 8.33066 87.001 10.72C86.1477 13.024 86.5743 16.3093 88.281 20.576C90.329 25.6107 92.2917 30.4747 94.169 35.168C96.0463 39.8613 98.137 44.9387 100.441 50.4C102.489 55.1787 104.452 59.7867 106.329 64.224C108.292 68.576 109.785 72.2027 110.809 75.104H111.065C112.004 72.1173 112.942 69.2587 113.881 66.528C114.905 63.7973 116.1 60.5547 117.465 56.8C120.025 49.632 122.158 43.5733 123.865 38.624C125.657 33.6747 127.193 29.4507 128.473 25.952C129.753 22.4533 130.82 19.4667 131.673 16.992C132.441 14.7733 133.124 12.896 133.721 11.36C134.318 9.824 134.873 8.544 135.385 7.52C133.764 7.60533 132.142 7.69066 130.521 7.77599C128.9 7.86133 127.236 7.94667 125.529 8.032V2.39999H151.513V6.62399C147.758 6.79466 144.857 7.776 142.809 9.56799C140.846 11.36 139.054 14.56 137.433 19.168C137.262 19.5947 137.049 20.192 136.793 20.96C136.537 21.6427 136.11 22.7947 135.513 24.416C134.916 26.0373 134.062 28.4267 132.953 31.584C131.844 34.656 130.308 38.8373 128.345 44.128C126.468 49.4187 124.036 56.0747 121.049 64.096C118.148 72.1173 114.606 81.8453 110.425 93.28H106.841ZM200.834 58.848C200.834 55.0933 200.322 52.4053 199.298 50.784C198.274 49.1627 196.653 48.1813 194.434 47.84C192.215 47.4987 189.271 47.4133 185.602 47.584L176.258 47.968V77.28C176.258 79.584 176.215 81.5467 176.13 83.168C176.13 84.7893 176.045 86.1547 175.874 87.264L200.322 86.88C204.077 86.7947 207.319 86.1973 210.05 85.088C212.781 83.8933 214.914 81.8453 216.45 78.944C217.986 76.0427 218.754 72.0747 218.754 67.04H223.106L222.338 92H156.29V87.776C159.533 87.6053 161.751 86.88 162.946 85.6C164.141 84.2347 164.781 82.4 164.866 80.096C165.037 77.7067 165.122 75.0187 165.122 72.032V16.736C165.122 15.0293 165.165 13.408 165.25 11.872C165.335 10.2507 165.421 8.8 165.506 7.52C163.97 7.60533 162.434 7.69066 160.898 7.77599C159.362 7.86133 157.826 7.94667 156.29 8.032V2.39999H217.858L218.498 24.8H214.274C214.274 19.7653 213.506 15.968 211.97 13.408C210.434 10.7627 208.343 9.01333 205.698 8.16C203.138 7.22133 200.237 6.79467 196.994 6.88L185.986 7.13599C182.829 7.22133 180.567 7.81866 179.202 8.92799C177.837 10.0373 176.983 11.7013 176.642 13.92C176.386 16.0533 176.258 18.8693 176.258 22.368V42.848L200.322 42.976L199.426 31.968H205.058V58.848H200.834ZM302.987 29.408C302.902 24.3733 302.39 20.192 301.451 16.864C300.512 13.536 298.848 11.0613 296.459 9.43999C294.155 7.73333 290.784 6.92266 286.347 7.008H275.467L275.339 76.768C275.339 79.072 275.296 81.0773 275.211 82.784C275.211 84.4053 275.126 85.7707 274.955 86.88C276.747 86.7947 278.496 86.7093 280.203 86.624C281.995 86.5387 283.787 86.4533 285.579 86.368V92H255.499V87.776C258.742 87.6053 260.918 86.8373 262.027 85.472C263.222 84.1067 263.862 82.272 263.947 79.968C264.118 77.5787 264.203 74.9333 264.203 72.032L264.331 7.13599L251.147 7.26399C245.771 7.26399 241.974 9.05599 239.755 12.64C237.536 16.224 236.427 21.8133 236.427 29.408H231.691L232.459 2.39999H307.083L307.851 29.408H302.987ZM346.59 6.62399C343.433 6.70933 341.214 7.43466 339.934 8.8C338.739 10.1653 338.057 12 337.886 14.304C337.801 16.608 337.758 19.296 337.758 22.368V76.768C337.758 79.072 337.715 81.0773 337.63 82.784C337.63 84.4053 337.545 85.7707 337.374 86.88C338.91 86.7947 340.446 86.7093 341.982 86.624C343.518 86.5387 345.054 86.4533 346.59 86.368V92H317.79V87.776C321.033 87.6053 323.251 86.88 324.446 85.6C325.641 84.2347 326.281 82.4 326.366 80.096C326.537 77.7067 326.622 75.0187 326.622 72.032V16.736C326.622 15.0293 326.665 13.408 326.75 11.872C326.835 10.2507 326.921 8.8 327.006 7.52C325.47 7.60533 323.934 7.69066 322.398 7.77599C320.862 7.86133 319.326 7.94667 317.79 8.032V2.39999H346.59V6.62399Z" fill="black"/>
</svg>
